<?xml version="1.0" encoding="UTF-8"?>
<svg version="1.1" xmlns="http://www.w3.org/2000/svg" width="512" height="512">
<path d="M0 0 C1.95311731 -0.01265991 1.95311731 -0.01265991 3.94569153 -0.02557558 C5.38890058 -0.01978044 6.83210851 -0.01369941 8.27531528 -0.00736332 C9.80978411 -0.01153576 11.34424985 -0.01701278 12.87870985 -0.02368313 C17.09727621 -0.03816834 21.31564771 -0.03388346 25.53422487 -0.02651632 C30.08305196 -0.02179455 34.63183628 -0.03428569 39.18064976 -0.04453373 C48.09283308 -0.06174645 57.00494598 -0.06255663 65.91714161 -0.05732083 C73.15954185 -0.05328255 80.40192125 -0.0547186 87.64432049 -0.06006908 C88.67434508 -0.06081751 89.70436968 -0.06156593 90.76560714 -0.06233703 C92.85796909 -0.06386848 94.95033103 -0.06540682 97.04269297 -0.066952 C116.67278027 -0.08068594 136.30282774 -0.07523303 155.93291415 -0.06376678 C173.89905952 -0.05383307 191.86510192 -0.0667759 209.83123141 -0.09070098 C228.27097176 -0.11507209 246.71066411 -0.12470477 265.15042025 -0.11804825 C275.5061178 -0.11455166 285.86173613 -0.1168171 296.21742153 -0.13429928 C305.03285323 -0.1489964 313.84814994 -0.14968934 322.66357892 -0.13222837 C327.16255854 -0.12369549 331.66129676 -0.12162441 336.16026402 -0.13687992 C340.27772807 -0.15066913 344.39474261 -0.14603872 348.51218028 -0.12664068 C350.00270511 -0.12286256 351.49326545 -0.12585459 352.9837588 -0.13625234 C355.00842923 -0.14937359 357.03322092 -0.13548466 359.05787659 -0.12025452 C360.74546511 -0.12009351 360.74546511 -0.12009351 362.46714634 -0.11992925 C367.23361843 0.64315168 370.40937696 2.93980196 373.44262886 6.63494873 C374.94222653 10.21730166 375.01071087 13.48786582 374.97953892 17.3062048 C374.98761722 18.49457663 374.98761722 18.49457663 374.99585873 19.70695597 C375.010153 22.35857005 375.00303105 25.00968595 374.9959116 27.66132259 C375.0016144 29.56363482 375.00857831 31.46594363 375.01670933 33.36824703 C375.03466574 38.53352761 375.03346767 43.69863853 375.02776694 48.86394095 C375.0246787 53.17568327 375.03076348 57.48739284 375.03680569 61.7991305 C375.05085745 71.97067011 375.04928418 82.14212574 375.03790379 92.31366634 C375.02642146 102.80823554 375.04049874 113.30254922 375.06730026 123.79708475 C375.089449 132.80698953 375.09609651 141.81681406 375.09022385 150.82674414 C375.08685116 156.20814288 375.08929016 161.58937781 375.10647488 166.97075367 C375.12192872 172.03105292 375.1180057 177.09097332 375.09916973 182.15125751 C375.09547955 184.00801934 375.09860479 185.86480914 375.10905552 187.72154522 C375.12223796 190.25728298 375.11074299 192.79176145 375.09306431 195.32744503 C375.10266931 196.06140135 375.11227432 196.79535767 375.12217039 197.5515551 C375.04955045 202.61749738 373.73806848 205.45670082 370.59185886 209.38031673 C365.91980814 213.66993955 359.91422711 212.75806647 353.94732761 212.67328548 C352.82240406 212.66904064 351.69748051 212.6647958 350.53846836 212.66042233 C346.95185324 212.64365364 343.36580365 212.60600362 339.77935886 212.56781673 C337.3451222 212.55276761 334.91087671 212.5390796 332.47662449 212.52680111 C326.51484358 212.49375599 320.55339163 212.44357402 314.59185886 212.38031673 C314.59185886 213.04031673 314.59185886 213.70031673 314.59185886 214.38031673 C313.02951511 214.78250423 313.02951511 214.78250423 311.43560886 215.19281673 C292.85990752 220.18043298 277.05378049 228.39560204 263.59185886 242.38031673 C260.08560154 241.1054496 258.48389474 239.13262738 256.37148762 236.1269598 C248.17015212 224.50704581 238.44829112 213.90303258 224.00525379 211.13748837 C211.69070104 209.36878332 199.27126486 209.447098 186.85992527 209.75043392 C180.90538067 209.89319311 174.98648358 209.78136825 169.03406239 209.60306454 C139.70463458 208.66024474 139.70463458 208.66024474 114.65573788 222.01887417 C108.24785246 228.21531066 102.68637482 235.08028826 97.59185886 242.38031673 C94.42219808 240.86862604 92.25244341 239.25967345 89.71685886 236.81781673 C76.69331372 225.09237004 61.56349503 218.40270036 44.59185886 214.38031673 C44.59185886 213.72031673 44.59185886 213.06031673 44.59185886 212.38031673 C43.96625065 212.38919918 43.34064243 212.39808163 42.69607639 212.40723324 C36.17477667 212.49584368 29.65364845 212.55610803 23.13189793 212.6000433 C20.69921005 212.62013744 18.26657035 212.64741762 15.83404636 212.68207455 C12.33392531 212.73068734 8.83444385 212.75330812 5.33404636 212.77094173 C4.24945133 212.79158688 3.1648563 212.81223202 2.04739475 212.83350277 C-3.91587921 212.83526804 -7.83778734 212.64234218 -12.40814114 208.38031673 C-15.58017075 204.19869361 -15.83729059 200.53412984 -15.79582119 195.45442867 C-15.80120673 194.66218079 -15.80659227 193.8699329 -15.812141 193.0536775 C-15.82643528 190.40206342 -15.81931332 187.75094752 -15.81219387 185.09931087 C-15.81789667 183.19699864 -15.82486058 181.29468984 -15.8329916 179.39238644 C-15.85094802 174.22710586 -15.84974995 169.06199494 -15.84404922 163.89669251 C-15.84096097 159.58495019 -15.84704576 155.27324063 -15.85308796 150.96150297 C-15.86713972 140.78996336 -15.86556645 130.61850772 -15.85418606 120.44696712 C-15.84270374 109.95239793 -15.85678102 99.45808424 -15.88358253 88.96354872 C-15.90573127 79.95364394 -15.91237878 70.94381941 -15.90650612 61.93388933 C-15.90313343 56.55249059 -15.90557243 51.17125566 -15.92275715 45.7898798 C-15.938211 40.72958055 -15.93428797 35.66966015 -15.915452 30.60937595 C-15.91176182 28.75261413 -15.91488707 26.89582433 -15.92533779 25.03908825 C-15.93852024 22.50335048 -15.92702526 19.96887202 -15.90934658 17.43318844 C-15.91895159 16.69923212 -15.92855659 15.96527579 -15.93845266 15.20907837 C-15.86571536 10.13494912 -14.68280285 7.23352116 -11.40814114 3.38031673 C-7.52179639 0.53065695 -4.78135554 0.0043743 0 0 Z M108.09185886 67.94281673 C105.12283601 72.76747887 104.97119589 76.76848898 105.59185886 82.38031673 C107.78529697 86.84843139 110.07891023 89.28895029 114.59185886 91.38031673 C118.74141606 92.44718532 122.69195829 92.51106129 126.96606541 92.52075863 C127.69902686 92.52372975 128.43198832 92.52670087 129.18716073 92.52976203 C131.63815249 92.53841932 134.08909523 92.53995476 136.54010105 92.54144955 C138.29961342 92.54607982 140.05912478 92.55110477 141.81863499 92.55649471 C146.59564998 92.56960048 151.37265093 92.57606011 156.14968109 92.58050537 C159.13597584 92.58343902 162.12226678 92.58754439 165.10855961 92.59200954 C174.45724588 92.60567964 183.80592341 92.6153487 193.15461898 92.61921144 C203.9365707 92.62369119 214.71839559 92.64123734 225.50030875 92.67021203 C233.84103585 92.69184635 242.18172731 92.70191665 250.52248216 92.70325255 C255.50098726 92.70429932 260.47937305 92.71017985 265.45784855 92.72807217 C270.14299458 92.7445831 274.827932 92.74669368 279.51309681 92.73793316 C281.22831246 92.7371644 282.94353948 92.74148411 284.65872669 92.75139141 C296.9301439 92.87941056 296.9301439 92.87941056 308.59185886 89.38031673 C313.18334775 84.67404063 313.94685067 81.31116949 313.87310886 74.92328548 C313.46004642 71.18851255 312.08311554 69.14089846 309.59185886 66.38031673 C304.14328307 62.32881165 298.84081862 62.25490187 292.21765232 62.23987484 C291.48469086 62.23690372 290.75172941 62.2339326 289.996557 62.23087144 C287.54556524 62.22221415 285.0946225 62.22067871 282.64361668 62.21918392 C280.88410431 62.21455365 279.12459294 62.2095287 277.36508274 62.20413876 C272.58806775 62.19103298 267.8110668 62.18457336 263.03403664 62.1801281 C260.04774188 62.17719444 257.06145095 62.17308908 254.07515812 62.16862392 C244.72647185 62.15495382 235.37779432 62.14528477 226.02909875 62.14142203 C215.24714703 62.13694228 204.46532214 62.11939612 193.68340898 62.09042144 C185.34268188 62.06878712 177.00199042 62.05871682 168.66123557 62.05738091 C163.68273047 62.05633415 158.70434468 62.05045362 153.72586918 62.0325613 C149.04072315 62.01605036 144.35578573 62.01393978 139.67062092 62.02270031 C137.95540526 62.02346906 136.24017825 62.01914936 134.52499104 62.00924206 C120.17661824 61.42087103 120.17661824 61.42087103 108.09185886 67.94281673 Z M46.71685886 69.50531673 C45.02701635 73.82380316 44.93224904 77.80702193 45.59185886 82.38031673 C47.75484724 86.78640416 49.98866365 89.57906643 54.59185886 91.38031673 C59.6351127 92.06457731 63.42262771 91.95430294 68.02935886 89.69281673 C71.38841898 86.6614698 73.28541517 84.63892025 73.90826511 80.04828548 C74.17399539 74.33079864 73.56033038 70.7778122 69.59185886 66.38031673 C65.75472691 62.99461207 61.95784424 62.86740501 57.02935886 63.02875423 C52.36659741 63.70126791 49.73995594 66.07914005 46.71685886 69.50531673 Z M48.09185886 127.94281673 C45.12283601 132.76747887 44.97119589 136.76848898 45.59185886 142.38031673 C47.78529697 146.84843139 50.07891023 149.28895029 54.59185886 151.38031673 C58.74141606 152.44718532 62.69195829 152.51106129 66.96606541 152.52075863 C67.69902686 152.52372975 68.43198832 152.52670087 69.18716073 152.52976203 C71.63815249 152.53841932 74.08909523 152.53995476 76.54010105 152.54144955 C78.29961342 152.54607982 80.05912478 152.55110477 81.81863499 152.55649471 C86.59564998 152.56960048 91.37265093 152.57606011 96.14968109 152.58050537 C99.13597584 152.58343902 102.12226678 152.58754439 105.10855961 152.59200954 C114.45724588 152.60567964 123.80592341 152.6153487 133.15461898 152.61921144 C143.9365707 152.62369119 154.71839559 152.64123734 165.50030875 152.67021203 C173.84103585 152.69184635 182.18172731 152.70191665 190.52248216 152.70325255 C195.50098726 152.70429932 200.47937305 152.71017985 205.45784855 152.72807217 C210.14299458 152.7445831 214.827932 152.74669368 219.51309681 152.73793316 C221.22831246 152.7371644 222.94353948 152.74148411 224.65872669 152.75139141 C236.9301439 152.87941056 236.9301439 152.87941056 248.59185886 149.38031673 C253.18334775 144.67404063 253.94685067 141.31116949 253.87310886 134.92328548 C253.46004642 131.18851255 252.08311554 129.14089846 249.59185886 126.38031673 C244.14328307 122.32881165 238.84081862 122.25490187 232.21765232 122.23987484 C231.48469086 122.23690372 230.75172941 122.2339326 229.996557 122.23087144 C227.54556524 122.22221415 225.0946225 122.22067871 222.64361668 122.21918392 C220.88410431 122.21455365 219.12459294 122.2095287 217.36508274 122.20413876 C212.58806775 122.19103298 207.8110668 122.18457336 203.03403664 122.1801281 C200.04774188 122.17719444 197.06145095 122.17308908 194.07515812 122.16862392 C184.72647185 122.15495382 175.37779432 122.14528477 166.02909875 122.14142203 C155.24714703 122.13694228 144.46532214 122.11939612 133.68340898 122.09042144 C125.34268188 122.06878712 117.00199042 122.05871682 108.66123557 122.05738091 C103.68273047 122.05633415 98.70434468 122.05045362 93.72586918 122.0325613 C89.04072315 122.01605036 84.35578573 122.01393978 79.67062092 122.02270031 C77.95540526 122.02346906 76.24017825 122.01914936 74.52499104 122.00924206 C60.17661824 121.42087103 60.17661824 121.42087103 48.09185886 127.94281673 Z M286.71685886 129.50531673 C285.02701635 133.82380316 284.93224904 137.80702193 285.59185886 142.38031673 C287.75484724 146.78640416 289.98866365 149.57906643 294.59185886 151.38031673 C299.6351127 152.06457731 303.42262771 151.95430294 308.02935886 149.69281673 C311.38841898 146.6614698 313.28541517 144.63892025 313.90826511 140.04828548 C314.17399539 134.33079864 313.56033038 130.7778122 309.59185886 126.38031673 C305.75472691 122.99461207 301.95784424 122.86740501 297.02935886 123.02875423 C292.36659741 123.70126791 289.73995594 126.07914005 286.71685886 129.50531673 Z " fill="#000000" transform="translate(76.40814113616943,-0.38031673431396484)"/>
<path d="M0 0 C12.67509386 9.86461049 22.25717381 22.85371895 25 39 C26.57180562 56.85760429 24.19779234 73.18170456 12.9296875 87.66015625 C4.49469195 97.40301697 -4.23190456 102.91151964 -16 108 C-17.33898243 108.65524672 -18.67511172 109.31670411 -20 110 C-18.92363281 110.23074219 -17.84726562 110.46148437 -16.73828125 110.69921875 C12.36087013 117.11248551 37.12100617 131.48059236 53.6875 156.8125 C63.98281625 173.15325767 70.11007751 191.14841024 70.3125 210.5 C70.34150391 211.42425781 70.37050781 212.34851563 70.40039062 213.30078125 C70.45372894 219.03670197 70.01715144 222.5653933 66 227 C61.84056108 230.15717434 58.20525123 230.42939043 53.15003967 230.38768005 C52.36595889 230.39306559 51.58187811 230.39845113 50.7740373 230.40399987 C48.15006059 230.41829283 45.52658739 230.41117252 42.90258789 230.40405273 C41.0199798 230.4097556 39.13737517 230.41671954 37.254776 230.42485046 C32.1432122 230.44280612 27.03181984 230.44160896 21.92023396 230.43590808 C17.65322742 230.43281972 13.38625398 230.43890475 9.11925215 230.44494683 C-0.94681233 230.45899834 -11.01279195 230.45742553 -21.07885742 230.44604492 C-31.46436448 230.43456265 -41.84961335 230.44863985 -52.23508638 230.4754414 C-61.15157387 230.49759064 -70.06798027 230.50423753 -78.98449332 230.49836498 C-84.31000135 230.49499241 -89.63534387 230.49743052 -94.96082878 230.51461601 C-99.96859975 230.53007066 -104.9759879 230.52614596 -109.98374367 230.50731087 C-111.8211548 230.50362091 -113.6585942 230.5067453 -115.49597931 230.51719666 C-118.00544718 230.53038065 -120.51364287 230.51888285 -123.02305603 230.50120544 C-123.74923046 230.51081045 -124.47540488 230.52041546 -125.22358459 230.53031152 C-130.26594715 230.45728651 -133.09815546 229.1347875 -137 226 C-140.82118544 221.57291835 -140.50032505 216.82283313 -140.4375 211.25 C-140.42722778 209.85587891 -140.42722778 209.85587891 -140.41674805 208.43359375 C-140.21442753 199.57089412 -138.65272153 191.43468823 -136 183 C-135.649375 181.88496094 -135.29875 180.76992188 -134.9375 179.62109375 C-125.33299818 152.44168755 -105.44702609 131.33996838 -79.6875 118.75 C-70.31370141 114.61585541 -60.14383911 111.47633339 -50 110 C-52.48942479 108.72975504 -54.99929482 107.54005967 -57.5390625 106.37109375 C-74.74266589 98.32000111 -86.15101535 86.96003097 -93 69 C-97.98633072 52.73060694 -95.81176142 35.35280146 -88.3125 20.3125 C-79.74013516 5.51547828 -66.48561159 -4.17334289 -50.265625 -9.14453125 C-33.00124302 -13.18188643 -14.63953597 -9.78869419 0 0 Z " fill="#000000" transform="translate(291,282)"/>
<path d="M0 0 C12.67509386 9.86461049 22.25717381 22.85371895 25 39 C26.57180562 56.85760429 24.19779234 73.18170456 12.9296875 87.66015625 C4.49469195 97.40301697 -4.23190456 102.91151964 -16 108 C-17.33898243 108.65524672 -18.67511172 109.31670411 -20 110 C-18.92363281 110.23074219 -17.84726562 110.46148437 -16.73828125 110.69921875 C12.52554656 117.15328662 38.30512528 132.13884286 54.94140625 157.56640625 C65.09347435 174.20036486 71.09391116 191.43322224 71.3125 211.0625 C71.34150391 211.93455078 71.37050781 212.80660156 71.40039062 213.70507812 C71.4554946 219.30448964 70.88298388 222.65396864 67 227 C62.18505398 231.03947359 56.92924265 230.4019326 50.9675293 230.34057617 C49.85489212 230.34101425 48.74225494 230.34145233 47.59590149 230.34190369 C43.92182815 230.3398153 40.24821229 230.31648107 36.57421875 230.29296875 C34.02545928 230.287373 31.47669659 230.2831028 28.92793274 230.28010559 C22.90729328 230.26982533 16.8868499 230.24618618 10.86628896 230.21605712 C4.01022023 230.18249363 -2.84585644 230.16602223 -9.70198691 230.15097082 C-23.80141529 230.11963592 -37.90069866 230.06688764 -52 230 C-52.19947739 228.8376181 -52.39895477 227.67523621 -52.60447693 226.47763062 C-52.87217701 224.93477202 -53.14001146 223.39193674 -53.40795898 221.84912109 C-53.53870567 221.08510483 -53.66945236 220.32108856 -53.80416107 219.53392029 C-54.81369121 213.74452039 -56.14720867 208.18762258 -58.0625 202.625 C-58.35922607 201.75488281 -58.65595215 200.88476562 -58.96166992 199.98828125 C-64.23551638 185.16304696 -71.80808707 171.96156984 -82 160 C-82.73992187 159.12085938 -83.47984375 158.24171875 -84.2421875 157.3359375 C-90.36923603 150.29310236 -97.20757501 143.19494999 -105 138 C-105 137.01 -105 136.02 -105 135 C-103.03593811 133.27223931 -101.13892762 131.79675253 -99 130.3125 C-98.37279053 129.87333252 -97.74558105 129.43416504 -97.09936523 128.98168945 C-82.95729823 119.33897439 -66.9433546 112.67107002 -50 110 C-52.48942479 108.72975504 -54.99929482 107.54005967 -57.5390625 106.37109375 C-74.74266589 98.32000111 -86.15101535 86.96003097 -93 69 C-97.98633072 52.73060694 -95.81176142 35.35280146 -88.3125 20.3125 C-79.74013516 5.51547828 -66.48561159 -4.17334289 -50.265625 -9.14453125 C-33.00124302 -13.18188643 -14.63953597 -9.78869419 0 0 Z " fill="#000000" transform="translate(441,252)"/>
<path d="M0 0 C12.67509386 9.86461049 22.25717381 22.85371895 25 39 C26.57180562 56.85760429 24.19779234 73.18170456 12.9296875 87.66015625 C4.49469195 97.40301697 -4.23190456 102.91151964 -16 108 C-17.33898243 108.65524672 -18.67511172 109.31670411 -20 110 C-18.94683594 110.21914063 -17.89367187 110.43828125 -16.80859375 110.6640625 C2.44622357 114.82848171 19.8359654 122.16272204 35 135 C34.64907164 137.79511357 34.16637507 138.84606104 32.06640625 140.7890625 C30.82697266 141.69785156 30.82697266 141.69785156 29.5625 142.625 C8.04567574 159.24468076 -5.92736097 182.76115826 -13.75 208.5625 C-14.04825684 209.53401001 -14.04825684 209.53401001 -14.35253906 210.52514648 C-15.61224157 214.90331492 -16.39169824 219.27532177 -17.06738281 223.78100586 C-17.24327942 224.94699814 -17.41917603 226.11299042 -17.60040283 227.3143158 C-17.7322699 228.20059158 -17.86413696 229.08686737 -18 230 C-32.7600643 230.09351098 -47.52008929 230.16401224 -62.28038979 230.20724869 C-69.13413022 230.22785927 -75.98768642 230.25595073 -82.84130859 230.30175781 C-89.4548641 230.34593924 -96.06827846 230.36913508 -102.68198776 230.37950897 C-105.20578398 230.38690231 -107.72956967 230.40133962 -110.25328445 230.42292023 C-113.78708829 230.45193766 -117.32010019 230.45595653 -120.85400391 230.45410156 C-121.89841644 230.46848267 -122.94282898 230.48286377 -124.01889038 230.49768066 C-130.01205135 230.46361798 -133.42844365 229.98151998 -138 226 C-141.7461129 221.62163175 -141.46519109 217.11732636 -141.375 211.625 C-141.36484863 210.73522461 -141.35469727 209.84544922 -141.34423828 208.92871094 C-140.7889619 184.97004164 -131.00613648 162.65756325 -115 145 C-114.56204102 144.51289551 -114.12408203 144.02579102 -113.67285156 143.52392578 C-97.0974923 125.31676509 -74.38488206 113.57594214 -50 110 C-52.48942479 108.72975504 -54.99929482 107.54005967 -57.5390625 106.37109375 C-74.74266589 98.32000111 -86.15101535 86.96003097 -93 69 C-97.98633072 52.73060694 -95.81176142 35.35280146 -88.3125 20.3125 C-79.74013516 5.51547828 -66.48561159 -4.17334289 -50.265625 -9.14453125 C-33.00124302 -13.18188643 -14.63953597 -9.78869419 0 0 Z " fill="#000000" transform="translate(141,252)"/>
</svg>
